<svg xmlns="http://www.w3.org/2000/svg" viewBox="0 0 64 64" role="img" aria-labelledby="title desc">
  <title id="title">Earth icon</title>
  <desc id="desc">A small globe icon that resembles an earth emoji.</desc>
  <defs>
    <radialGradient id="ocean" cx="30%" cy="28%" r="75%">
      <stop offset="0%" stop-color="#7fd7ff" />
      <stop offset="58%" stop-color="#318fdd" />
      <stop offset="100%" stop-color="#155093" />
    </radialGradient>
    <linearGradient id="land" x1="0" x2="1" y1="0" y2="1">
      <stop offset="0%" stop-color="#8be06f" />
      <stop offset="100%" stop-color="#429b42" />
    </linearGradient>
  </defs>

  <circle cx="32" cy="32" r="27" fill="#0a223c" />
  <circle cx="32" cy="32" r="25" fill="url(#ocean)" />

  <ellipse cx="24" cy="22" rx="8" ry="5.5" fill="url(#land)" transform="rotate(-18 24 22)" />
  <path
    fill="url(#land)"
    d="M19 27c2-1 5-1 7 0l3 3-1 4-3 2-5-1-3-4c0-2 1-3 2-4z"
  />
  <path
    fill="url(#land)"
    d="M34 17c4-2 9-1 12 3l2 5-2 5-4 2-4-2-2-4 1-5z"
  />
  <path
    fill="url(#land)"
    d="M35 34c2-1 6-1 9 1l3 4-2 6-5 3-6-2-2-5 1-4z"
  />
  <path
    fill="url(#land)"
    d="M21 40c3-2 7-2 10 0l2 3-2 5-5 2-6-2-2-4z"
  />

  <path
    d="M16 24c4-9 13-15 23-15"
    fill="none"
    stroke="#dff5ff"
    stroke-linecap="round"
    stroke-width="2.2"
    opacity="0.38"
  />
  <ellipse
    cx="23"
    cy="20"
    rx="10"
    ry="6.5"
    fill="none"
    stroke="#dff5ff"
    stroke-width="1.4"
    opacity="0.16"
    transform="rotate(-20 23 20)"
  />
  <path
    d="M15 31h34"
    fill="none"
    stroke="#dff5ff"
    stroke-width="1.3"
    opacity="0.16"
  />
</svg>
