<svg xmlns="http://www.w3.org/2000/svg" viewBox="0 0 1200 720" role="img" aria-labelledby="title">
  <title id="title">Field Recording placeholder</title>
  <rect width="1200" height="720" fill="#f0ebdf" />
  <path d="M0 448c104-29 204-43 300-43 139 0 231 32 340 63 126 36 218 56 320 56 88 0 168-14 240-40v144H0z" fill="#d4dfc8" />
  <path d="M0 405c116-41 218-61 308-61 145 0 233 47 337 88 111 43 202 67 315 67 92 0 172-17 240-49" stroke="#2a523e" stroke-width="10" fill="none" stroke-linecap="round" />
  <path d="M178 211c79 46 137 112 174 198M362 168c64 57 109 131 136 221M548 192c46 58 76 123 92 194M734 178c36 41 59 87 71 137" stroke="#8d6448" stroke-width="8" fill="none" stroke-linecap="round" opacity="0.7" />
</svg>
